<svg xmlns="http://www.w3.org/2000/svg" viewBox="0 0 64 64" width="64" height="64">
  <defs>
    <linearGradient id="bg" x1="0" y1="0" x2="1" y2="1">
      <stop offset="0" stop-color="#1a0b0d"/>
      <stop offset="0.55" stop-color="#2a0a0e"/>
      <stop offset="1" stop-color="#3b0d12"/>
    </linearGradient>
    <radialGradient id="glow" cx="0.78" cy="0.18" r="0.6">
      <stop offset="0" stop-color="#ef4444" stop-opacity="0.55"/>
      <stop offset="1" stop-color="#ef4444" stop-opacity="0"/>
    </radialGradient>
    <linearGradient id="r1" x1="0" y1="0" x2="1" y2="0">
      <stop offset="0" stop-color="#ef4444"/><stop offset="1" stop-color="#f87171"/>
    </linearGradient>
    <linearGradient id="r2" x1="0" y1="0" x2="1" y2="0">
      <stop offset="0" stop-color="#f87171"/><stop offset="1" stop-color="#fecaca"/>
    </linearGradient>
  </defs>
  <rect x="4" y="4" width="56" height="56" rx="15" fill="url(#bg)"/>
  <rect x="4" y="4" width="56" height="56" rx="15" fill="url(#glow)"/>
  <rect x="4" y="4" width="56" height="56" rx="15" fill="none" stroke="#f87171" stroke-opacity="0.18" stroke-width="2"/>
  <g>
    <rect x="14" y="20" width="36" height="6.5" rx="3.25" fill="#ffffff" fill-opacity="0.16"/>
    <rect x="14" y="20" width="21" height="6.5" rx="3.25" fill="url(#r1)"/>
    <rect x="14" y="30.75" width="36" height="6.5" rx="3.25" fill="#ffffff" fill-opacity="0.16"/>
    <rect x="14" y="30.75" width="30" height="6.5" rx="3.25" fill="url(#r2)"/>
    <rect x="14" y="41.5" width="36" height="6.5" rx="3.25" fill="#ffffff" fill-opacity="0.16"/>
    <rect x="14" y="41.5" width="15" height="6.5" rx="3.25" fill="url(#r1)"/>
  </g>
</svg>
